<?xml version="1.0" standalone="no"?>
<!DOCTYPE svg PUBLIC "-//W3C//DTD SVG 20010904//EN"
 "http://www.w3.org/TR/2001/REC-SVG-20010904/DTD/svg10.dtd">
<svg version="1.0" xmlns="http://www.w3.org/2000/svg"
 width="640.000000pt" height="1280.000000pt" viewBox="0 0 640.000000 1280.000000"
 preserveAspectRatio="xMidYMid meet">
<metadata>
Created by potrace 1.15, written by Peter Selinger 2001-2017
</metadata>
<g transform="translate(0.000000,1280.000000) scale(0.100000,-0.100000)"
fill="#ffffff" stroke="none">
<path d="M4445 12776 c-33 -12 -130 -68 -215 -123 l-155 -102 -115 21 c-176
32 -407 30 -558 -5 -234 -54 -348 -139 -441 -327 -110 -223 -222 -620 -325
-1147 -71 -363 -76 -386 -112 -445 -101 -170 -492 -707 -877 -1206 -165 -214
-167 -219 -222 -447 -93 -389 -128 -803 -128 -1515 0 -548 9 -765 93 -2370 46
-891 60 -1345 60 -1980 0 -867 34 -1076 262 -1640 134 -330 135 -333 147 -580
6 -118 11 -272 11 -342 l0 -127 -138 -120 c-77 -65 -151 -134 -165 -151 -36
-42 -80 -117 -75 -129 1 -6 35 10 73 35 103 66 161 94 194 94 38 0 294 -66
348 -90 32 -14 43 -16 43 -6 0 22 33 44 85 57 28 6 61 18 75 25 28 13 48 7 85
-27 26 -23 185 -119 198 -119 5 0 -88 99 -206 220 -257 262 -243 228 -207 480
13 91 25 184 27 206 l5 42 81 -31 c110 -41 278 -84 407 -105 77 -12 164 -16
330 -16 232 1 377 16 587 62 l81 18 107 -192 106 -192 -98 -95 c-54 -52 -110
-104 -124 -116 -55 -43 -168 -196 -184 -249 -6 -21 1 -18 67 25 119 81 163
103 200 103 43 0 288 -62 351 -89 36 -16 47 -17 47 -7 0 22 29 40 112 67 l79
25 77 -54 c66 -46 162 -102 175 -102 3 0 -102 106 -233 235 l-237 236 42 167
c52 207 108 502 180 957 103 648 168 957 259 1241 75 234 105 417 151 929 14
154 39 420 55 590 16 171 39 425 50 565 27 337 51 581 110 1135 97 904 104
1003 104 1405 0 359 -10 485 -60 790 -62 378 -189 842 -361 1330 -56 158 -63
171 -157 303 -194 275 -359 456 -503 554 -46 31 -85 64 -88 72 -11 37 -55 258
-55 277 0 34 46 162 111 312 160 365 199 487 220 691 9 88 9 144 0 244 -10
113 -10 132 3 139 20 11 108 105 218 233 115 133 195 208 237 221 l31 9 -24
50 c-48 103 -106 125 -221 81z"/>
</g>
</svg>
