<?xml version="1.0" standalone="no"?>
<!DOCTYPE svg PUBLIC "-//W3C//DTD SVG 20010904//EN"
 "http://www.w3.org/TR/2001/REC-SVG-20010904/DTD/svg10.dtd">
<svg version="1.0" xmlns="http://www.w3.org/2000/svg"
 width="902.000000pt" height="1280.000000pt" viewBox="0 0 902.000000 1280.000000"
 preserveAspectRatio="xMidYMid meet">
<metadata>
Created by potrace 1.15, written by Peter Selinger 2001-2017
</metadata>
<g transform="translate(0.000000,1280.000000) scale(0.100000,-0.100000)"
fill="#ffffff" stroke="none">
<path d="M7790 12594 c-19 -2 -84 -9 -145 -15 -225 -22 -553 -74 -855 -135
-182 -37 -524 -122 -598 -148 -41 -15 -44 -15 -140 24 -299 118 -685 146
-1157 84 -578 -76 -1075 -266 -1285 -491 -73 -78 -107 -146 -116 -229 -6 -59
-7 -60 -50 -78 -57 -23 -100 -76 -121 -146 -41 -140 22 -444 142 -679 24 -49
26 -60 20 -130 -12 -148 -43 -284 -96 -427 l-19 -51 -59 -7 c-85 -10 -169 -55
-236 -128 -45 -48 -74 -97 -137 -225 -88 -181 -138 -260 -318 -508 -339 -467
-489 -718 -583 -982 -81 -223 -76 -488 13 -755 16 -48 59 -154 95 -235 36 -81
62 -150 58 -153 -5 -4 -66 -51 -138 -106 -227 -173 -411 -342 -584 -539 -704
-797 -1049 -1759 -891 -2486 10 -47 32 -120 48 -161 32 -82 129 -238 148 -238
22 0 228 87 374 158 156 76 381 211 497 297 l72 54 5 -27 c3 -15 10 -61 17
-102 26 -167 75 -277 194 -435 182 -242 301 -506 369 -815 36 -163 47 -273 47
-446 0 -312 -55 -418 -429 -821 -222 -239 -299 -338 -361 -460 -49 -97 -73
-224 -55 -290 l6 -22 73 26 73 26 49 -20 c97 -41 149 -48 368 -48 239 1 309
10 806 101 325 59 585 97 600 88 21 -13 6 -76 -40 -171 -54 -110 -58 -125 -48
-164 8 -33 39 -53 108 -73 130 -37 505 -50 576 -21 20 8 37 14 38 13 1 -2 9
-24 19 -49 22 -60 72 -130 120 -168 123 -98 333 -100 604 -7 l74 25 46 -23
c122 -62 332 -121 567 -160 249 -42 455 -57 835 -63 195 -3 360 -9 366 -14 7
-6 16 -4 24 6 10 12 38 15 139 15 238 -1 577 -19 619 -33 40 -14 42 -13 66 12
42 44 35 76 -28 137 -43 42 -91 71 -229 138 -144 71 -174 90 -170 104 3 14 -5
21 -36 30 -22 7 -66 34 -98 60 -32 27 -80 63 -106 81 -52 36 -245 131 -264
131 -7 0 -13 7 -13 15 0 10 -10 15 -31 15 -17 0 -77 13 -133 29 -179 51 -368
88 -593 116 -252 31 -345 37 -533 36 -138 0 -211 4 -249 14 -29 7 -55 16 -58
19 -3 3 -1 22 4 43 l9 38 84 12 c47 6 105 17 130 24 68 18 224 101 319 169
l83 61 77 -30 c199 -77 584 -131 712 -101 122 29 134 59 98 257 -15 84 -7 113
40 141 l30 18 -39 38 c-56 54 -67 94 -41 148 11 24 34 62 52 84 21 29 29 48
25 62 -11 35 -98 62 -296 91 l-114 17 79 57 c44 31 136 96 205 143 230 160
280 213 481 511 71 105 167 240 213 298 94 120 138 203 224 417 101 252 157
327 443 598 286 271 350 347 492 582 291 482 539 1130 611 1593 101 655 -23
1435 -324 2035 -108 215 -206 365 -375 575 -53 66 -165 221 -248 344 -170 253
-234 336 -336 435 -93 91 -210 174 -406 287 -302 174 -308 179 -382 291 -152
231 -313 391 -510 506 -34 21 -63 40 -63 44 0 4 10 8 22 10 18 3 15 7 -24 32
-83 52 -100 119 -49 197 32 50 85 102 253 247 190 166 220 211 226 348 5 102
-9 160 -59 250 l-28 52 107 42 c280 112 583 270 683 358 25 22 65 39 144 62
329 94 516 166 523 201 2 11 -8 20 -29 28 -33 11 -257 22 -319 15z"/>
</g>
</svg>
