<?xml version="1.0" standalone="no"?>
<!DOCTYPE svg PUBLIC "-//W3C//DTD SVG 20010904//EN"
 "http://www.w3.org/TR/2001/REC-SVG-20010904/DTD/svg10.dtd">
<svg version="1.0" xmlns="http://www.w3.org/2000/svg"
 width="1056.000000pt" height="1280.000000pt" viewBox="0 0 1056.000000 1280.000000"
 preserveAspectRatio="xMidYMid meet">
<metadata>
Created by potrace 1.15, written by Peter Selinger 2001-2017
</metadata>
<g transform="translate(0.000000,1280.000000) scale(0.100000,-0.100000)"
fill="#ffffff" stroke="none">
<path d="M3324 11938 c-22 -24 -56 -63 -74 -88 -19 -25 -118 -131 -220 -235
-102 -105 -240 -253 -306 -330 -164 -190 -577 -695 -633 -774 -89 -125 -206
-267 -298 -362 -52 -52 -101 -106 -110 -118 -14 -20 -15 -54 -9 -275 3 -138
10 -316 15 -396 5 -88 5 -196 -1 -275 -5 -71 -13 -195 -16 -275 l-7 -145 -105
3 c-58 1 -148 7 -200 13 -52 5 -287 13 -522 18 -235 5 -432 12 -437 15 -5 3
-55 7 -111 8 -79 1 -104 -2 -116 -14 -30 -30 -46 -205 -49 -568 -13 -1217 -27
-1628 -75 -2190 -5 -63 -14 -243 -19 -400 -6 -157 -16 -373 -22 -481 -7 -107
-9 -207 -5 -222 4 -18 15 -29 32 -33 39 -10 311 -10 321 -1 8 9 12 117 31 869
6 218 13 405 16 415 3 10 10 288 16 618 9 588 24 955 39 1005 7 23 11 17 45
-55 21 -44 85 -192 143 -330 109 -258 225 -500 311 -646 74 -128 416 -814 468
-940 25 -61 68 -159 96 -217 28 -59 88 -186 133 -283 73 -157 92 -188 167
-277 47 -56 102 -134 123 -174 54 -104 120 -204 176 -269 32 -37 52 -72 58
-100 16 -70 13 -829 -5 -1084 -8 -121 -19 -427 -24 -680 -8 -431 -16 -621 -41
-1075 -6 -102 -13 -408 -16 -681 -8 -725 -1 -759 174 -759 38 0 84 5 103 10
19 6 66 15 104 20 38 4 76 15 84 24 12 12 17 60 24 227 5 117 13 231 19 253 6
24 14 295 20 651 5 336 14 662 19 725 6 63 15 230 20 370 6 140 14 300 20 355
20 196 30 568 30 1106 0 421 3 549 13 561 11 15 23 15 147 0 111 -13 245 -16
750 -16 338 0 753 3 922 8 314 9 335 8 693 -31 101 -10 182 -13 291 -8 135 6
152 5 168 -10 12 -12 15 -26 11 -45 -7 -33 9 -135 31 -200 16 -45 16 -46 -24
-150 -22 -58 -47 -128 -55 -156 -8 -28 -23 -66 -32 -84 -9 -17 -27 -66 -41
-107 -32 -98 -56 -131 -115 -157 -46 -20 -212 -155 -352 -286 -161 -151 -235
-321 -253 -583 -7 -108 3 -141 43 -145 36 -4 40 1 101 114 41 75 55 93 98 117
27 16 75 52 107 79 32 28 61 47 64 44 4 -3 -1 -49 -11 -101 -32 -168 -19 -366
28 -430 14 -20 14 -20 43 1 30 22 65 72 180 259 7 11 26 52 43 90 l31 70 16
-29 c8 -16 30 -70 49 -120 27 -74 34 -105 34 -166 0 -84 16 -120 54 -120 68 0
121 167 157 501 12 113 12 123 -25 400 -51 389 -52 356 18 492 57 112 176 283
206 298 8 4 69 17 135 29 66 13 125 24 130 27 6 2 19 -2 28 -10 14 -10 20 -36
27 -122 5 -61 14 -155 20 -210 15 -144 1 -237 -50 -341 -22 -45 -56 -127 -75
-182 -44 -127 -99 -220 -216 -363 -133 -164 -225 -307 -248 -387 -47 -161 -49
-250 -9 -380 24 -79 71 -134 94 -110 8 8 34 66 58 129 57 151 97 227 138 266
34 33 85 49 81 26 -7 -32 19 -313 32 -360 17 -59 53 -106 98 -130 28 -14 32
-14 43 2 7 9 16 43 19 74 15 149 65 338 91 348 16 6 130 -77 163 -119 19 -24
20 -34 11 -299 -5 -151 -13 -335 -19 -409 -6 -74 -20 -263 -31 -420 -11 -157
-29 -364 -40 -460 -10 -96 -20 -251 -22 -343 l-3 -169 33 -29 c32 -28 34 -29
157 -31 69 -1 139 -2 157 -2 l32 -1 18 95 c33 174 47 303 57 535 18 386 20
433 36 635 43 567 61 1046 46 1206 -15 152 -14 235 6 571 l17 291 55 7 c31 3
103 15 161 27 59 12 118 18 132 15 46 -12 89 -58 123 -131 30 -67 37 -74 120
-130 102 -69 142 -82 309 -96 127 -11 255 -4 481 25 67 9 113 11 119 5 5 -5 8
-62 7 -127 -1 -111 11 -358 25 -504 l7 -67 -49 -15 c-27 -9 -112 -25 -189 -37
-162 -25 -335 -64 -374 -85 -96 -49 -180 -152 -195 -238 -4 -21 -23 -59 -43
-85 -20 -26 -47 -71 -60 -99 -24 -51 -24 -54 -9 -113 41 -160 125 -227 255
-201 65 13 74 20 103 79 20 40 23 61 21 142 -1 52 -3 108 -5 125 -3 28 1 31
92 71 161 72 254 77 380 23 85 -36 88 -84 15 -229 -18 -36 -45 -103 -61 -150
-25 -77 -28 -101 -31 -255 -2 -93 -4 -197 -6 -230 -2 -79 19 -122 80 -159 59
-35 119 -44 159 -23 16 9 48 35 72 59 35 37 44 54 53 105 10 55 9 65 -11 104
-12 24 -29 51 -37 61 -13 14 -12 21 11 55 46 70 113 255 141 388 43 204 41
200 101 264 45 49 62 61 97 66 23 4 83 23 132 43 75 30 103 35 170 36 76 1
101 -6 193 -50 1 0 -4 -33 -13 -73 -13 -65 -13 -76 1 -109 63 -153 318 -206
400 -83 58 89 51 156 -25 230 -35 34 -50 56 -54 84 -7 44 -91 168 -139 204
-98 73 -239 113 -403 113 -87 0 -231 -21 -309 -45 -26 -8 -52 -12 -56 -10 -5
3 -14 30 -21 60 -10 44 -9 98 6 297 11 151 15 282 11 345 -6 101 -5 103 17
107 12 3 96 14 187 25 108 13 205 32 280 54 393 116 508 158 603 219 71 45
202 199 218 257 25 88 19 123 -31 178 -25 27 -57 65 -71 84 -14 19 -74 63
-133 99 -59 36 -114 70 -122 75 -14 10 -14 21 0 115 34 222 41 375 28 617 -10
198 -17 254 -52 423 -43 208 -53 340 -26 340 8 0 50 -19 93 -42 67 -36 87 -42
138 -42 34 0 91 9 131 22 57 17 79 30 109 63 81 90 90 133 120 554 20 283 20
281 -10 470 -59 364 -91 464 -197 606 -97 132 -222 220 -394 280 -49 17 -206
64 -349 105 -208 60 -264 79 -282 99 -12 14 -34 64 -48 112 -15 50 -50 127
-79 178 -164 281 -294 491 -356 575 -38 52 -90 133 -115 180 -25 47 -81 128
-125 180 -44 52 -103 138 -132 190 -29 52 -74 126 -101 164 -27 38 -101 159
-164 270 -207 362 -405 596 -624 739 -129 84 -164 103 -339 180 -151 67 -201
80 -412 111 -243 36 -282 39 -416 26 -242 -22 -363 -53 -512 -132 -151 -80
-219 -126 -312 -215 -42 -40 -83 -74 -90 -75 -7 0 -134 -2 -283 -2 -230 -1
-277 -4 -320 -19 -27 -10 -102 -29 -165 -44 -140 -31 -226 -61 -314 -110 -49
-27 -65 -41 -60 -53 3 -8 10 -44 14 -80 14 -122 77 -211 342 -481 145 -147
199 -195 258 -229 56 -33 121 -89 260 -225 186 -181 251 -231 408 -309 84 -42
312 -185 372 -233 30 -24 74 -68 96 -98 36 -47 46 -71 73 -182 30 -124 71
-375 71 -432 0 -27 -3 -29 -62 -40 -35 -5 -110 -15 -168 -21 -58 -7 -132 -17
-165 -25 -198 -43 -330 -77 -401 -104 -45 -16 -124 -37 -175 -46 -52 -9 -161
-37 -244 -62 -239 -73 -207 -76 -273 25 -118 183 -283 379 -552 657 -85 88
-182 189 -216 225 -34 36 -118 120 -187 188 l-126 123 -436 -2 c-240 -1 -439
1 -442 5 -8 8 39 78 117 171 37 44 85 114 107 155 22 42 71 118 108 170 38 52
98 142 133 200 75 123 77 131 91 435 6 110 15 225 22 255 8 38 13 187 13 475
1 283 5 433 13 460 21 72 18 845 -3 983 -3 17 -11 32 -17 32 -7 0 -31 -19 -53
-42z m2733 -2010 c-2 -13 -4 -5 -4 17 -1 22 1 32 4 23 2 -10 2 -28 0 -40z
m-10 -50 c-3 -8 -6 -5 -6 6 -1 11 2 17 5 13 3 -3 4 -12 1 -19z m-757 -775 c-8
-3 -18 -10 -21 -15 -3 -5 -12 -2 -19 7 -11 13 -8 15 21 14 19 0 27 -3 19 -6z
m1707 -1648 c9 -24 -1 -27 -15 -5 -8 13 -8 20 -2 20 6 0 13 -7 17 -15z m-2693
-400 c-7 -17 -7 -17 -28 -9 -24 9 -19 24 9 24 18 0 23 -4 19 -15z m569 -122
c-7 -2 -21 -2 -30 0 -10 3 -4 5 12 5 17 0 24 -2 18 -5z m1012 -731 l100 -37 3
-42 c4 -58 -14 -124 -33 -117 -8 4 -31 29 -52 58 -20 28 -61 77 -90 108 -29
31 -53 59 -53 62 0 11 26 5 125 -32z m1272 -1684 c-3 -7 -5 -2 -5 12 0 14 2
19 5 13 2 -7 2 -19 0 -25z m10 -120 c-2 -18 -4 -4 -4 32 0 36 2 50 4 33 2 -18
2 -48 0 -65z m-407 -442 c-5 -76 -12 -141 -15 -144 -6 -6 3 202 11 257 11 68
12 22 4 -113z m366 -502 c-3 -8 -9 -14 -14 -14 -5 0 -4 24 2 53 l11 52 3 -39
c2 -21 1 -44 -2 -52z m-403 -165 c-6 -82 -22 -431 -29 -612 l-7 -199 -33 89
c-18 48 -48 132 -68 186 -20 54 -36 109 -36 122 0 22 12 65 80 281 46 148 99
224 93 133z m117 -3193 c0 -3 -4 -8 -10 -11 -5 -3 -10 -1 -10 4 0 6 5 11 10
11 6 0 10 -2 10 -4z"/>
</g>
</svg>
